<svg width="30" height="48" viewBox="0 0 30 48" fill="none" xmlns="http://www.w3.org/2000/svg">
<g clip-path="url(#clip0_462_7906)">
<path d="M25.222 0H4.77804C2.13785 0 0 2.13411 0 4.76968V43.242C0 45.8659 2.13785 48.0117 4.77804 48.0117H25.2336C27.8622 48.0117 30.0117 45.8776 30.0117 43.242V4.76968C30 2.13411 27.8622 0 25.222 0ZM28.0257 43.242C28.0257 44.7813 26.764 46.0408 25.222 46.0408H4.77804C3.23598 46.0408 1.9743 44.7813 1.9743 43.242V4.76968C1.9743 3.23032 3.23598 1.97085 4.77804 1.97085H25.2336C26.7757 1.97085 28.0374 3.23032 28.0374 4.76968V43.242H28.0257Z" fill="white"/>
<path d="M17.3708 7.84863H12.6278C12.0787 7.84863 11.6465 8.29178 11.6465 8.82822C11.6465 9.37633 12.0904 9.80782 12.6278 9.80782H17.3708C17.9198 9.80782 18.3521 9.36467 18.3521 8.82822C18.3521 8.28012 17.9198 7.84863 17.3708 7.84863Z" fill="white"/>
<path d="M19.3574 32.1394L19.3457 31.393L22.0093 31.3581L21.9859 28.6992L22.7336 28.6875L22.7686 31.3581C22.7686 31.7662 22.4415 32.1044 22.0326 32.1044L19.3574 32.1394Z" fill="white"/>
<path d="M9.74376 23.8017L8.99609 23.79L9.03114 21.1195C9.03114 20.9212 9.11292 20.7346 9.2531 20.5947C9.39329 20.4547 9.58021 20.3848 9.7788 20.3848L12.454 20.4198L12.4424 21.1661L9.7788 21.1311L9.74376 23.8017Z" fill="white"/>
<path d="M13.3307 23.0896C13.319 23.0546 13.284 23.0312 13.2489 23.0312H12.291C12.2559 23.0312 12.2209 23.0546 12.2092 23.0896L10.1064 29.2353C10.0947 29.2587 10.1064 29.2936 10.1181 29.317C10.1298 29.3403 10.1648 29.352 10.1882 29.352H11.0176C11.0527 29.352 11.0877 29.3286 11.0994 29.2936L11.7186 27.4161H13.7863L14.4288 29.2936C14.4405 29.3286 14.4756 29.352 14.5106 29.352H15.3634C15.3868 29.352 15.4218 29.3403 15.4335 29.317C15.4452 29.2936 15.4569 29.2587 15.4452 29.2353L13.3307 23.0896ZM12.9802 24.9671L13.541 26.6231H11.9288L12.4896 24.9554C12.5714 24.7105 12.6414 24.4423 12.7232 24.1391C12.805 24.4073 12.8868 24.6756 12.9802 24.9671Z" fill="white"/>
<path d="M20.0489 28.1278V22.7867C20.0489 22.74 20.0139 22.6934 19.9555 22.6934H19.1494C19.1027 22.6934 19.0559 22.7283 19.0559 22.7867V25.1773C18.7756 24.8508 18.3199 24.6642 17.7826 24.6642C17.2569 24.6642 16.7662 24.8741 16.3924 25.2473C15.9485 25.7021 15.7031 26.3668 15.7031 27.1248C15.7031 28.4776 16.5442 29.4572 17.6891 29.4572C18.2849 29.4572 18.8223 29.2006 19.1494 28.7692L19.1728 29.2823C19.1728 29.3289 19.2195 29.3639 19.2662 29.3639H19.9905C20.0139 29.3639 20.0372 29.3523 20.0606 29.3406C20.0723 29.3173 20.084 29.2939 20.084 29.2706C20.0489 28.9091 20.0489 28.396 20.0489 28.1278ZM19.0676 26.6467V27.4164C19.0676 27.5447 19.0559 27.6496 19.0326 27.7429C18.9041 28.2794 18.4601 28.6292 17.9344 28.6292C17.0349 28.6292 16.7078 27.8012 16.7078 27.0899C16.7078 26.1219 17.2101 25.4689 17.9461 25.4689C18.5536 25.4689 18.9274 25.9004 19.0209 26.3318C19.0559 26.4135 19.0676 26.5301 19.0676 26.6467Z" fill="white"/>
</g>
<defs>
<clipPath id="clip0_462_7906">
<rect width="30" height="48" fill="white"/>
</clipPath>
</defs>
</svg>
